{"accessors" : [{"bufferView" : 0, "byteOffset" : 0, "componentType" : 5123, "count" : 17841, "type" : "SCALAR", "max" : [17840], "min" : [0]}, {"bufferView" : 1, "byteOffset" : 0, "componentType" : 5126, "count" : 17841, "type" : "VEC3", "max" : [0.330049991607666, 0.4809490144252777, 0.09999939799308777], "min" : [-0.3258500099182129, -0.4852989912033081, -0.09999939799308777], "name" : "POSITION"}, {"bufferView" : 1, "byteOffset" : 12, "componentType" : 5126, "count" : 17841, "type" : "VEC3", "max" : [1.0000044107437134, 1.0000044107437134, 1.0000044107437134], "min" : [-1.0000044107437134, -1.0000044107437134, -1.0000044107437134], "name" : "NORMAL"}], "asset" : {"generator" : "Aspose.3D 21.12", "version" : "2.0"}, "buffers" : [{"uri" : "data:application/octet-stream;base64,", "byteLength" : 463876}], "bufferViews" : [{"buffer" : 0, "byteOffset" : 0, "byteLength" : 35684, "target" : 34963}, {"buffer" : 0, "byteOffset" : 35688, "byteLength" : 428184, "byteStride" : 24, "target" : 34962}], "meshes" : [{"primitives" : [{"attributes" : {"POSITION" : 1, "NORMAL" : 2}, "indices" : 0, "mode" : 4}], "name" : "OpenSCAD_Model"}], "nodes" : [{"mesh" : 0, "name" : "OpenSCAD_Model"}], "scene" : 0, "scenes" : [{"nodes" : [0]}]}